<?xml version="1.0" encoding="UTF-8"?>
<svg width="57.935" height="57.932" version="1.1" viewBox="0 0 57.935 57.932" xml:space="preserve" xmlns="http://www.w3.org/2000/svg" xmlns:cc="http://creativecommons.org/ns#" xmlns:dc="http://purl.org/dc/elements/1.1/" xmlns:rdf="http://www.w3.org/1999/02/22-rdf-syntax-ns#"><metadata><rdf:RDF><cc:Work rdf:about=""><dc:format>image/svg+xml</dc:format><dc:type rdf:resource="http://purl.org/dc/dcmitype/StillImage"/><dc:title/></cc:Work></rdf:RDF></metadata><defs><clipPath id="clipPath28"><path d="M 0,141.732 H 255.118 V 0 H 0 Z"/></clipPath></defs><g transform="matrix(1.3333 0 0 -1.3333 -140.33 124.81)"><g transform="translate(-.58446 -23.086)" fill="#b3b3b3"><g clip-path="url(#clipPath28)" fill="#b3b3b3"><g transform="translate(127.56 111.12)" fill="#b3b3b3"><path d="m0 0c-0.493 0.773-1.082 1.483-1.731 2.132-2.282 2.283-5.044 3.444-8.275 3.444-3.235 0-5.999-1.158-8.286-3.444-2.287-2.287-3.434-5.041-3.434-8.276v-31.729h3.419v31.729c0 2.294 0.809 4.25 2.43 5.872 1.622 1.622 3.577 2.431 5.871 2.431 2.289 0 4.241-0.816 5.86-2.431 1.627-1.622 2.432-3.575 2.432-5.872v-6.403h3.417v6.403c0 2.294 0.809 4.25 2.43 5.872 1.623 1.622 3.578 2.431 5.872 2.431s4.249-0.809 5.871-2.431c1.621-1.622 2.431-3.578 2.431-5.872v-16.333h3.418v16.333c0 3.236-1.159 5.99-3.445 8.276s-5.039 3.444-8.275 3.444c-3.232 0-5.992-1.16-8.275-3.444-0.649-0.65-1.237-1.357-1.73-2.132m1.703-37.873h-3.417v15.734h3.417z" fill="#b3b3b3" fill-rule="evenodd"/></g></g></g></g></svg>